<?xml version="1.0" encoding="iso-8859-1"?>
<!-- Generator: Adobe Illustrator 18.0.0, SVG Export Plug-In . SVG Version: 6.00 Build 0)  -->
<!DOCTYPE svg PUBLIC "-//W3C//DTD SVG 1.1//EN" "http://www.w3.org/Graphics/SVG/1.1/DTD/svg11.dtd">
<svg version="1.1" id="Capa_1" xmlns="http://www.w3.org/2000/svg" xmlns:xlink="http://www.w3.org/1999/xlink" x="0px" y="0px"
	 viewBox="0 0 141.682 141.682" style="enable-background:new 0 0 141.682 141.682;" xml:space="preserve">
<g>
	<path style="fill:#1E1723;" d="M133.218,65.912c1.561-1.83,2.32-4.16,2.13-6.55c-0.22-2.82-1.74-5.35-4.1-6.87
		c0.23-0.33,0.43-0.68,0.62-1.04c1.1-2.15,1.29-4.58,0.55-6.87c-0.7-2.17-2.18-3.98-4.17-5.09c-0.45-0.25-0.92-0.46-1.4-0.63
		c0.15-0.38,0.271-0.77,0.37-1.17c0.57-2.34,0.19-4.75-1.05-6.79c-1.44-2.4-4.061-4.02-6.76-4.3c0.059-0.41,0.09-0.82,0.1-1.24
		c0.01-2.4-0.92-4.66-2.6-6.36c-1.99-2.03-4.9-2.95-7.57-2.6c-0.26-2.71-1.73-5.28-4.21-6.82c-2.49-1.57-5.43-1.74-7.96-0.78
		c-0.69-2.06-2.12-3.86-4.13-4.98c-0.48-0.26-0.99-0.49-1.51-0.67c-2.28-0.76-4.721-0.6-6.87,0.46c-0.37,0.19-0.721,0.39-1.061,0.62
		c-1.439-2.3-4.02-3.94-6.81-4.19c-2.391-0.23-4.73,0.5-6.58,2.03c-0.32,0.27-0.61,0.55-0.891,0.85c-0.569-0.55-1.21-1.04-1.93-1.44
		c-1.74-0.97-3.7-1.33-5.67-1.04c-2.89,0.41-5.27,2.17-6.59,4.54c-2.41-1.46-5.35-1.71-7.96-0.67c-2.24,0.87-4,2.58-4.96,4.79
		c-0.16,0.37-0.29,0.75-0.4,1.14c-2.649-0.86-5.56-0.45-7.92,1.19c-2.439,1.71-3.55,5.01-4.04,7.36c-2.26-0.04-5.43,0.56-7.83,3.66
		c-1.76,2.27-2.27,4.71-1.55,7.29c-2.34,0.5-5.15,1.6-6.47,4.06l-0.12,0.24c-0.05,0.1-0.1,0.2-0.14,0.28
		c-1.11,2.44-1.03,5.16,0.01,7.46c-0.38,0.15-0.75,0.33-1.11,0.54c-2.07,1.21-3.559,3.15-4.18,5.48c-0.74,2.79-0.101,5.67,1.59,7.84
		c-2.21,1.59-3.67,4.16-3.74,7.08c-0.069,2.84,1.19,5.51,3.37,7.25c-0.26,0.31-0.51,0.63-0.729,0.97c-1.32,2.01-1.77,4.42-1.27,6.78
		c0.57,2.72,2.4,5.05,4.91,6.25c-0.34,0.649-0.64,1.34-0.84,2.079c-0.601,2.171,0,4.53,0.41,5.83c1.229,1.91,2.189,3.101,3.84,4.021
		c0.85,0.47,1.79,0.82,2.72,1.01c-0.1,0.4-0.17,0.811-0.22,1.24c-0.26,2.38,0.43,4.729,1.92,6.609c1.78,2.221,4.58,3.461,7.28,3.391
		c0,0.41,0.019,0.82,0.069,1.229c0.3,2.391,1.511,4.511,3.41,5.99c0.36,0.28,0.74,0.55,1.15,0.771c2.12,1.18,4.51,1.43,6.7,0.83
		c0.489,2.159,1.77,4.119,3.67,5.43l-5.03,3.58l34.88,15.7l34.88-15.7l-6.56-4.67c3.12-1.32,4.269-4.12,4.479-6.84
		c2.2,0.63,4.79,0.819,6.86-0.681l0.149-0.109c2.631-2.23,4-4.48,4.19-6.9c0.03-0.32,0.03-0.64,0.01-0.96
		c2.71-0.13,5.311-1.46,6.9-3.79c1.47-2.15,1.92-4.66,1.31-7.25c-0.06-0.29-0.149-0.58-0.239-0.86c0.649-0.12,1.3-0.31,1.909-0.58
		c2.141-0.939,3.73-2.659,4.45-4.85c1-3,0.38-5.54-0.82-7.49c1.881-1,3.671-2.899,4.641-6.3l0.059-0.29
		c0.45-2.81-0.489-5.63-2.399-7.63C132.668,66.511,132.958,66.222,133.218,65.912z M47.668,125.002l10.979-7.83l7.721,16.25
		L47.668,125.002z M89.048,65.602c-4.93,0-8.01,1.22-9.91,2.899c-0.03,0-0.06-0.01-0.09-0.01h-14c-0.03,0-0.06,0.01-0.09,0.01
		c-1.9-1.68-4.98-2.899-9.91-2.899c-5.1,0-8.2,1.31-10.08,3.069c-0.29-0.109-0.6-0.18-0.92-0.18h-3v-11.5c0-1.93,1.57-3.5,3.5-3.5
		h55c1.93,0,3.5,1.57,3.5,3.5v11.5h-3c-0.32,0-0.63,0.07-0.92,0.18C97.248,66.912,94.148,65.602,89.048,65.602z M96.878,75.542
		c0,4.32-3.51,7.84-7.83,7.84c-4.32,0-7.83-3.52-7.83-7.84c0-1.47,0-4.939,7.83-4.939C96.878,70.602,96.878,74.072,96.878,75.542z
		 M62.878,75.542c0,4.32-3.51,7.84-7.83,7.84c-4.32,0-7.83-3.52-7.83-7.84c0-1.47,0-4.939,7.83-4.939
		C62.878,70.602,62.878,74.072,62.878,75.542z M42.398,73.492c-0.13,0.73-0.18,1.43-0.18,2.05c0,7.08,5.75,12.84,12.83,12.84
		c7.08,0,12.83-5.76,12.83-12.84c0-0.62-0.05-1.319-0.18-2.05h8.699c-0.13,0.73-0.18,1.43-0.18,2.05c0,7.08,5.75,12.84,12.83,12.84
		c7.08,0,12.83-5.76,12.83-12.84c0-0.62-0.05-1.319-0.18-2.05h1.35v23.5c0,1.93-1.57,3.5-3.5,3.5h-11.5h-31h-12.5
		c-1.93,0-3.5-1.57-3.5-3.5v-23.5H42.398z M72.588,134.612l-0.2-0.17l-10.34-21.77v-7.18h21v7.18l-10.4,21.9L72.588,134.612z
		 M78.728,133.422l7.721-16.25l10.979,7.83L78.728,133.422z M129.418,62.662c-0.69,0.81-1.66,1.3-2.82,1.39l-0.35,4.98
		c0.1,0.01,0.21,0.02,0.3,0.03c0.46,0.08,0.89,0.229,1.29,0.449c1.42,0.79,2.22,2.36,2.02,3.95c-0.85,2.87-2.439,3.46-3.479,3.521
		c-0.28,1.79-0.84,3.54-1.68,5.17c0.989,0.859,2.229,2.45,1.47,4.71c-0.351,1.06-1.14,1.64-1.73,1.89
		c-0.989,0.44-2.199,0.41-3.25-0.069l-0.26-0.12l-1.38,2.729l-1.4,1.33c0.03,0.04,3.25,3.57,1.19,6.58
		c-1.12,1.63-3.39,2.13-5.17,1.13c-0.14-0.07-0.271-0.149-0.44-0.27l-0.08-0.06l-3.33,3.721l0.07,0.079
		c1.271,1.471,1.2,2.311,1.18,2.591c-0.05,0.59-0.39,1.25-0.949,1.949c-0.21,0.301-0.44,0.57-0.721,0.801
		c-0.21,0.21-0.42,0.42-0.67,0.64c-0.31,0.18-0.83,0.21-1.47,0.11c-0.38-0.011-0.78-0.11-1.18-0.28c-0.351-0.11-0.71-0.24-1.08-0.39
		c-1.51,1.399-3.26,2.539-5.19,3.319c0.15,1.44-0.12,3.19-1.43,4.19c-1.65,1.26-3.86,0.27-4.88-0.311l-5.95-4.239v-6.69h11.5
		c4.69,0,8.5-3.81,8.5-8.5v-40c0-4.69-3.81-8.5-8.5-8.5h-55c-4.69,0-8.5,3.81-8.5,8.5v40c0,4.69,3.81,8.5,8.5,8.5h12.5v6.69
		l-9.53,6.79c-0.47-0.04-0.95-0.141-1.39-0.341c-2.021-0.909-2.88-3.319-1.981-5.31l-4.149-2.79l-0.141,0.2
		c-1.329,1.7-3.88,2.05-5.609,0.7c-0.84-0.66-1.38-1.61-1.521-2.671c-0.13-1.06,0.16-2.1,0.811-2.949l0.12-0.141l-3.62-3.439
		c0.01-0.021,0.029-0.03,0.04-0.04l-0.12,0.09c-1.28,1.01-3.021,1.16-4.45,0.36c-0.46-0.261-0.85-0.591-1.18-1
		c-0.67-0.841-0.971-1.891-0.86-2.96c0.12-1.051,0.63-2,1.45-2.66c0.17-0.13,0.31-0.271,0.39-0.37c-0.069,0.07-0.16,0.14-0.26,0.22
		l-2.66-4.22c0.07-0.04,0.16-0.08,0.23-0.11c-0.15,0.05-0.301,0.11-0.431,0.17c-1.159,0.55-2.55,0.49-3.72-0.16
		c-0.5-0.279-0.939-0.659-1.29-1.109l0.01-0.01c-0.029-0.051-0.13-0.2-0.239-0.381c-0.11-0.189-0.23-0.38-0.351-0.569
		c-0.16-0.26-0.29-1.021,0.01-2.09c0.32-1.181,1.011-2.2,1.841-2.74l0.38-0.07l0.319-0.149l-1.279-3.62l-0.16-1.11
		c0.04-0.01,0.1-0.02,0.14-0.02c-0.189,0.01-0.54,0.02-0.96,0.159c-1.95,0.2-3.899-1.22-4.309-3.149
		c-0.221-1.05-0.021-2.12,0.559-3.021c0.58-0.89,1.481-1.5,2.521-1.72l0.229-0.06l-0.57-4.94l-0.119-0.01
		c-0.65-0.01-1.271-0.181-1.841-0.5c-1.3-0.73-2.09-2.11-2.05-3.6c0.021-0.68,0.2-1.31,0.51-1.87c0.131-0.22,0.271-0.43,0.441-0.62
		c0.08-0.1,0.17-0.19,0.26-0.27c0.731-0.72,1.731-1.15,2.82-1.14c0.13,0.01,0.27,0.02,0.4,0.02l0.3-4.2l-0.28,1.13l0.02-0.14
		l0.3-1.855l-0.021-0.405h-0.01c0,0-0.59,0.035-0.88-0.125c-0.481-0.27-0.89-0.507-1.21-0.928c-0.21-0.27-0.391-0.509-0.51-0.828
		c-0.341-0.801-0.41-1.68-0.181-2.56c0.181-0.65,0.511-1.214,0.96-1.684c0.261-0.29,0.57-0.523,0.91-0.723
		c0.91-0.53,1.981-0.676,2.99-0.416c0.059,0.02,0.12,0.042,0.18,0.052l1.83-4.649c-0.08-0.04-0.149-0.07-0.16-0.08
		c-1.81-1.01-2.55-3.27-1.69-5.16l0.13-0.25c0.66-1.17,3.729-1.8,5.7-1.8l1.319-0.04l1.38-1.92l-0.189-0.98
		c-1.76-1.39-2.33-3.93-1.21-5.94c1.24-2.22,4.12-3.04,6.35-1.8c0.34,0.19,0.63,0.43,0.9,0.68l2.67-3.07c0,0-0.38-3.48,0.02-4.19
		c0.261-0.47,0.61-0.86,1.011-1.18c0.12-0.14,0.239-0.28,0.38-0.37c1.27-0.88,2.899-0.96,4.25-0.21c0.53,0.29,0.97,0.7,1.33,1.2
		l0.09,0.14l4.42-2.32l-0.11-0.24c-0.37-0.98-0.35-2.05,0.07-3.02c0.43-0.98,1.21-1.73,2.2-2.12c1.12-0.45,2.37-0.36,3.42,0.23
		c0.82,0.45,1.43,1.15,1.8,2.1c0.04,0.1,0.08,0.2,0.12,0.29l4.68-1.73c0.011,0.03,0.011,0.05,0.021,0.06
		c-0.311-2.18,1.21-4.21,3.39-4.52c0.88-0.13,1.75,0.03,2.521,0.46c1.1,0.61,1.83,1.67,2.01,2.89l0.02,0.17l4.971,0.05l0.029-0.33
		c0.101-1.06,0.601-2.03,1.431-2.71c0.819-0.68,1.85-1,2.92-0.9c0.569,0.05,1.1,0.21,1.59,0.48c1.37,0.77,2.17,2.27,2.04,3.84
		l-0.04,0.26l4.939,0.8c0.341-1.01,1.061-1.83,2.011-2.3c0.96-0.48,2.05-0.55,3.06-0.21c2.08,0.71,3.2,3.01,2.5,5.1l-0.08,0.24
		l4.641,1.84c0,0.01-0.011,0.02-0.011,0.03c1.13-1.81,3.471-2.42,5.34-1.38l0.171,0.1c1.859,1.16,2.439,3.61,1.31,5.47
		c-0.04,0.06-0.08,0.12-0.14,0.21l3.939,3.07l0.101-0.1c1.52-1.51,4.1-1.54,5.649,0.04c0.75,0.76,1.16,1.76,1.16,2.83
		c-0.01,1.07-0.43,2.07-1.17,2.8l-0.22,0.21l3.189,3.84l0.09-0.06c1.23-0.75,2.771-0.77,4.03-0.07c0.59,0.33,1.101,0.82,1.47,1.43
		c0.551,0.91,0.71,1.98,0.46,3.01c-0.25,1.03-0.88,1.89-1.77,2.45l-0.21,0.11l2.08,4.54l0.17-0.06c1.07-0.34,2.2-0.23,3.18,0.32
		c0.891,0.49,1.54,1.29,1.86,2.26c0.32,1.01,0.24,2.1-0.25,3.05c-0.49,0.95-1.32,1.66-2.28,1.97l-0.13,0.04l0.75,4.93
		c0.13-0.01,0.25-0.02,0.36-0.04c0.769-0.05,1.529,0.12,2.199,0.5c1.181,0.65,1.941,1.84,2.04,3.18
		C130.449,60.822,130.108,61.852,129.418,62.662z"/>
	<path style="fill:#916AFF;" d="M128.318,56.572c-0.67-0.38-1.43-0.55-2.199-0.5c-0.11,0.02-0.231,0.03-0.36,0.04l-0.75-4.93
		l0.13-0.04c0.96-0.31,1.79-1.02,2.28-1.97c0.49-0.95,0.57-2.04,0.25-3.05c-0.32-0.97-0.97-1.77-1.86-2.26
		c-0.979-0.55-2.109-0.66-3.18-0.32l-0.17,0.06l-2.08-4.54l0.21-0.11c0.89-0.56,1.52-1.42,1.77-2.45c0.25-1.03,0.091-2.1-0.46-3.01
		c-0.369-0.61-0.88-1.1-1.47-1.43c-1.26-0.7-2.8-0.68-4.03,0.07l-0.09,0.06l-3.189-3.84l0.22-0.21c0.74-0.73,1.16-1.73,1.17-2.8
		c0-1.07-0.41-2.07-1.16-2.83c-1.55-1.58-4.13-1.55-5.649-0.04l-0.101,0.1l-3.939-3.07c0.059-0.09,0.1-0.15,0.14-0.21
		c1.13-1.86,0.55-4.31-1.31-5.47l-0.171-0.1c-1.869-1.04-4.21-0.43-5.34,1.38c0-0.01,0.011-0.02,0.011-0.03l-4.641-1.84l0.08-0.24
		c0.7-2.09-0.42-4.39-2.5-5.1c-1.01-0.34-2.1-0.27-3.06,0.21c-0.95,0.47-1.67,1.29-2.011,2.3l-4.939-0.8l0.04-0.26
		c0.13-1.57-0.67-3.07-2.04-3.84c-0.49-0.27-1.021-0.43-1.59-0.48c-1.07-0.1-2.101,0.22-2.92,0.9c-0.83,0.68-1.33,1.65-1.431,2.71
		l-0.029,0.33l-4.971-0.05l-0.02-0.17c-0.18-1.22-0.91-2.28-2.01-2.89c-0.771-0.43-1.641-0.59-2.521-0.46
		c-2.18,0.31-3.7,2.34-3.39,4.52c-0.01-0.01-0.01-0.03-0.021-0.06l-4.68,1.73c-0.04-0.09-0.08-0.19-0.12-0.29
		c-0.37-0.95-0.979-1.65-1.8-2.1c-1.05-0.59-2.3-0.68-3.42-0.23c-0.99,0.39-1.771,1.14-2.2,2.12c-0.42,0.97-0.44,2.04-0.07,3.02
		l0.11,0.24l-4.42,2.32l-0.09-0.14c-0.36-0.5-0.8-0.91-1.33-1.2c-1.351-0.75-2.98-0.67-4.25,0.21c-0.141,0.09-0.26,0.23-0.38,0.37
		c-0.4,0.32-0.75,0.71-1.011,1.18c-0.399,0.71-0.02,4.19-0.02,4.19l-2.67,3.07c-0.271-0.25-0.56-0.49-0.9-0.68
		c-2.229-1.24-5.109-0.42-6.35,1.8c-1.12,2.01-0.55,4.55,1.21,5.94l0.189,0.98l-1.38,1.92l-1.319,0.04c-1.971,0-5.04,0.63-5.7,1.8
		l-0.13,0.25c-0.86,1.89-0.12,4.15,1.69,5.16c0.011,0.01,0.08,0.04,0.16,0.08l-1.83,4.65c-0.06-0.01-0.12-0.03-0.18-0.05
		c-1.01-0.26-2.08-0.11-2.99,0.42c-0.34,0.2-0.649,0.44-0.91,0.73c-0.439,0.48-0.76,1.06-0.939,1.7c-0.23,0.88-0.17,1.79,0.16,2.59
		c0.13,0.31,0.3,0.61,0.51,0.89c0.32,0.42,0.729,0.535,1.21,0.805c0.29,0.16,0.88,0.125,0.88,0.125h0.01l0.021,0.405l-0.3,1.732
		l0.26-0.928l-0.3,4.23c-0.131,0-0.271,0.005-0.4-0.004c-1.09-0.01-2.09,0.427-2.82,1.147c-0.09,0.08-0.18,0.174-0.26,0.274
		c-0.17,0.19-0.31,0.402-0.441,0.622c-0.309,0.56-0.489,1.191-0.51,1.871c-0.04,1.49,0.75,2.87,2.05,3.6
		c0.57,0.32,1.19,0.491,1.841,0.501l0.119,0.01l0.57,4.94l-0.229,0.06c-1.04,0.22-1.941,0.83-2.521,1.72
		c-0.58,0.9-0.78,1.971-0.559,3.021c0.41,1.93,2.359,3.35,4.309,3.149c0.42-0.14,0.771-0.149,0.96-0.159c-0.04,0-0.1,0.01-0.14,0.02
		l0.16,1.11l1.279,3.62l-0.319,0.149l-0.38,0.07c-0.83,0.54-1.521,1.56-1.841,2.74c-0.3,1.069-0.17,1.83-0.01,2.09
		c0.12,0.189,0.24,0.38,0.351,0.569c0.109,0.181,0.21,0.33,0.239,0.381l-0.01,0.01c0.351,0.45,0.79,0.83,1.29,1.109
		c1.17,0.65,2.561,0.71,3.72,0.16c0.13-0.06,0.28-0.12,0.431-0.17c-0.07,0.03-0.16,0.07-0.23,0.11l2.66,4.22
		c0.1-0.08,0.19-0.149,0.26-0.22c-0.08,0.1-0.22,0.24-0.39,0.37c-0.82,0.66-1.33,1.609-1.45,2.66c-0.11,1.069,0.19,2.119,0.86,2.96
		c0.33,0.409,0.72,0.739,1.18,1c1.43,0.8,3.17,0.649,4.45-0.36l0.12-0.09c-0.011,0.01-0.03,0.02-0.04,0.04l3.62,3.439l-0.12,0.141
		c-0.65,0.85-0.94,1.89-0.811,2.949c0.141,1.061,0.681,2.011,1.521,2.671c1.729,1.35,4.28,1,5.609-0.7l0.141-0.2l4.149,2.79
		c-0.899,1.99-0.04,4.4,1.981,5.31c0.439,0.2,0.92,0.301,1.39,0.341l9.53-6.79v-6.69h-12.5c-4.69,0-8.5-3.81-8.5-8.5v-40
		c0-4.69,3.81-8.5,8.5-8.5h55c4.69,0,8.5,3.81,8.5,8.5v40c0,4.69-3.81,8.5-8.5,8.5h-11.5v6.69l5.95,4.239
		c1.02,0.58,3.229,1.57,4.88,0.311c1.31-1,1.58-2.75,1.43-4.19c1.931-0.78,3.681-1.92,5.19-3.319c0.37,0.149,0.729,0.279,1.08,0.39
		c0.399,0.17,0.8,0.27,1.18,0.28c0.64,0.1,1.16,0.069,1.47-0.11c0.25-0.22,0.46-0.43,0.67-0.64c0.28-0.23,0.511-0.5,0.721-0.801
		c0.56-0.699,0.899-1.359,0.949-1.949c0.021-0.28,0.091-1.12-1.18-2.591l-0.07-0.079l3.33-3.721l0.08,0.06
		c0.17,0.12,0.301,0.199,0.44,0.27c1.78,1,4.05,0.5,5.17-1.13c2.06-3.01-1.16-6.54-1.19-6.58l1.4-1.33l1.38-2.729l0.26,0.12
		c1.051,0.479,2.261,0.51,3.25,0.069c0.591-0.25,1.38-0.83,1.73-1.89c0.76-2.26-0.48-3.851-1.47-4.71
		c0.84-1.63,1.399-3.38,1.68-5.17c1.04-0.061,2.63-0.65,3.479-3.521c0.2-1.59-0.6-3.16-2.02-3.95c-0.4-0.22-0.83-0.369-1.29-0.449
		c-0.09-0.011-0.2-0.021-0.3-0.03l0.35-4.98c1.16-0.09,2.13-0.58,2.82-1.39c0.689-0.81,1.03-1.84,0.939-2.91
		C130.258,58.412,129.498,57.222,128.318,56.572z M96.848,15.302l0.11-0.17L96.848,15.302z"/>
	<polygon style="fill:#FFDA00;" points="78.728,133.422 97.428,125.002 86.449,117.172 	"/>
	
		<line style="fill:none;stroke:#1E1723;stroke-width:0;stroke-linecap:round;stroke-linejoin:round;" x1="96.958" y1="15.132" x2="96.848" y2="15.302"/>
	<path style="fill:#FF2791;" d="M81.218,75.542c0,4.32,3.51,7.84,7.83,7.84c4.32,0,7.83-3.52,7.83-7.84c0-1.47,0-4.939-7.83-4.939
		C81.218,70.602,81.218,74.072,81.218,75.542z"/>
	<polygon style="fill:#FFFFFF;" points="83.048,105.492 62.048,105.492 62.048,112.672 72.388,134.442 72.588,134.612 
		72.648,134.572 83.048,112.672 	"/>
	<path style="fill:#1E1723;" d="M72.048,98.042c4.17,0,7.85-2.96,8.76-7.03c0.3-1.34-0.55-2.68-1.899-2.979
		c-1.36-0.3-2.691,0.55-2.98,1.9c-0.399,1.8-2.03,3.109-3.88,3.109c-1.38,0-2.5,1.12-2.5,2.5
		C69.548,96.922,70.668,98.042,72.048,98.042z"/>
	<polygon style="fill:#FFDA00;" points="47.668,125.002 66.369,133.422 58.648,117.172 	"/>
	<path style="fill:#FF2791;" d="M47.218,75.542c0,4.32,3.51,7.84,7.83,7.84c4.32,0,7.83-3.52,7.83-7.84c0-1.47,0-4.939-7.83-4.939
		C47.218,70.602,47.218,74.072,47.218,75.542z"/>
	<path style="fill:none;stroke:#1E1723;stroke-width:0;stroke-linecap:round;stroke-linejoin:round;" d="M12.258,60.352
		c0.08-0.1,0.17-0.19,0.26-0.27"/>
	<path style="fill:none;stroke:#1E1723;stroke-width:0;stroke-linecap:round;stroke-linejoin:round;" d="M11.818,60.972
		c0.131-0.22,0.271-0.43,0.441-0.62"/>
</g>
<g>
</g>
<g>
</g>
<g>
</g>
<g>
</g>
<g>
</g>
<g>
</g>
<g>
</g>
<g>
</g>
<g>
</g>
<g>
</g>
<g>
</g>
<g>
</g>
<g>
</g>
<g>
</g>
<g>
</g>
</svg>
